Coordinates
version=1
nRows=54
nColumns=12
inDegrees=yes

Units are S.I. units (second, meters, Newtons, ...)
Angles are in degrees

endheader
time	SC_y	SC_z	SC_x	AC_y	AC_z	AC_x	GH_y	GH_z	GH_yy	EL_x	PS_y
       0.0              -41.15           39.2          61.54          30.71         -4.554           3.07         -164.0           41.6          50.79          22.76          72.65
 0.0003286              -41.15           39.2          61.53          30.71         -4.555          3.067         -164.0          41.59           50.8          22.77          72.66
 0.0006571              -41.15          39.19          61.53          30.71         -4.555          3.065         -164.0          41.59          50.81          22.78          72.67
 0.0009857              -41.15          39.19          61.52          30.72         -4.556          3.062         -164.0          41.58          50.82          22.78          72.68
  0.001314              -41.16          39.19          61.51          30.72         -4.557          3.058         -164.0          41.58          50.83          22.79          72.69
  0.001643              -41.16          39.19          61.51          30.73         -4.557          3.055         -164.0          41.57          50.84           22.8          72.71
  0.001971              -41.16          39.19           61.5          30.74         -4.558          3.051         -164.0          41.57          50.85          22.81          72.72
    0.0023              -41.16          39.18          61.49          30.74         -4.559          3.047         -164.0          41.56          50.87          22.82          72.74
  0.002629              -41.16          39.18          61.48          30.75          -4.56          3.043         -164.0          41.55          50.88          22.83          72.75
  0.002957              -41.16          39.18          61.48          30.76         -4.561          3.039         -163.9          41.54          50.89          22.84          72.77
  0.003286              -41.16          39.18          61.47          30.76         -4.562          3.034         -163.9          41.54          50.91          22.85          72.79
  0.003614              -41.16          39.17          61.46          30.77         -4.563          3.029         -163.9          41.53          50.93          22.86           72.8
  0.003943              -41.16          39.17          61.45          30.78         -4.564          3.023         -163.9          41.52          50.95          22.88          72.83
  0.004271              -41.16          39.17          61.43          30.79         -4.565          3.017         -163.9          41.51          50.97          22.89          72.85
    0.0046              -41.16          39.16          61.42           30.8         -4.567           3.01         -163.9          41.49          50.99          22.91          72.87
  0.004929              -41.16          39.16          61.41          30.81         -4.568          3.003         -163.9          41.48          51.01          22.92           72.9
  0.005257              -41.16          39.15          61.39          30.82          -4.57          2.995         -163.9          41.47          51.04          22.94          72.93
  0.005586              -41.16          39.15          61.38          30.84         -4.572          2.987         -163.9          41.45          51.07          22.96          72.96
  0.005914              -41.17          39.14          61.36          30.85         -4.574          2.978         -163.9          41.44           51.1          22.98          72.99
  0.006243              -41.17          39.14          61.34          30.87         -4.576          2.968         -163.9          41.42          51.13          23.01          73.03
  0.006571              -41.17          39.13          61.32          30.88         -4.578          2.957         -163.9           41.4          51.17          23.04          73.07
    0.0069              -41.17          39.12           61.3           30.9         -4.581          2.945         -163.9          41.38          51.21          23.07          73.12
  0.007229              -41.17          39.12          61.27          30.92         -4.583          2.931         -163.9          41.35          51.26           23.1          73.17
  0.007557              -41.17          39.11          61.24          30.95         -4.586          2.916         -163.9          41.33          51.31          23.13          73.22
  0.007886              -41.17           39.1          61.21          30.97          -4.59            2.9         -163.9           41.3          51.36          23.17          73.28
  0.008214              -41.18          39.09          61.18           31.0         -4.594          2.881         -163.9          41.27          51.43          23.22          73.35
  0.008543              -41.18          39.07          61.14          31.03         -4.598           2.86         -163.8          41.23          51.49          23.27          73.43
  0.008871              -41.18          39.06          61.09          31.07         -4.603          2.837         -163.8          41.19          51.57          23.32          73.51
    0.0092              -41.19          39.04          61.04          31.11         -4.609          2.811         -163.8          41.14          51.66          23.39          73.61
  0.009529              -41.19          39.03          60.99          31.16         -4.615          2.781         -163.8          41.09          51.76          23.46          73.72
  0.009857              -41.19          39.01          60.92          31.21         -4.622          2.747         -163.8          41.03          51.88          23.54          73.85
   0.01019               -41.2          38.98          60.85          31.27          -4.63          2.708         -163.7          40.96          52.01          23.64          73.99
   0.01051               -41.2          38.96          60.76          31.34          -4.64          2.663         -163.7          40.88          52.16          23.75          74.16
   0.01084              -41.21          38.93          60.66          31.43         -4.651           2.61         -163.7          40.79          52.34          23.87          74.35
   0.01117              -41.22          38.89          60.54          31.52         -4.663          2.549         -163.6          40.68          52.55          24.02          74.58
    0.0115              -41.23          38.85          60.41          31.64         -4.679          2.476         -163.6          40.55          52.79           24.2          74.85
   0.01183              -41.24           38.8          60.24          31.77         -4.697           2.39         -163.6           40.4          53.08          24.41          75.17
   0.01216              -41.25          38.74          60.04          31.93         -4.718          2.287         -163.5          40.22          53.43          24.65          75.55
   0.01249              -41.27          38.66          59.81          32.13         -4.744          2.162         -163.4           40.0          53.85          24.96          76.01
   0.01281              -41.29          38.57          59.52          32.37         -4.776           2.01         -163.3          39.73          54.36          25.32          76.58
   0.01314              -41.31          38.46          59.16          32.66         -4.816          1.822         -163.2           39.4          54.99          25.78          77.27
   0.01347              -41.34          38.32          58.71          33.03         -4.865          1.587         -163.1          38.99          55.78          26.35          78.14
    0.0138              -41.37          38.15          58.15          33.49         -4.926          1.292         -162.9          38.47          56.78          27.06          79.24
   0.01413              -41.42          37.93          57.43          34.08         -5.005         0.9158         -162.6           37.8          58.04          27.97          80.63
   0.01446              -41.48          37.64          56.52          34.83         -5.106         0.4349         -162.4          36.96          59.66          29.13          82.41
   0.01479              -41.56          37.28          55.34           35.8         -5.235        -0.1822         -162.0          35.87          61.74          30.62           84.7
   0.01511              -41.66          36.82          53.84          37.03           -5.4        -0.9704         -161.5          34.48           64.4          32.53          87.62
   0.01544              -41.78          36.23          51.96          38.58         -5.607         -1.962         -160.9          32.73          67.74          34.93          91.29
   0.01577              -41.93          35.52          49.66          40.47          -5.86         -3.169         -160.1          30.61          71.81          37.85          95.76
    0.0161               -42.1           34.7          46.99          42.66         -6.153         -4.569         -159.3          28.14          76.52          41.23          100.9
   0.01643              -42.29           33.8           44.1          45.04          -6.47         -6.085         -158.4          25.47          81.63          44.89          106.6
   0.01676              -42.48          32.91          41.22          47.41         -6.787         -7.601         -157.4           22.8          86.73          48.56          112.2
   0.01709              -42.65          32.09          38.55           49.6          -7.08         -9.001         -156.6          20.33          91.45          51.94          117.4
   0.01741               -42.8          31.37          36.25          51.49         -7.333         -10.21         -155.8           18.2          95.52          54.86          121.8
